#!OML:ASF X:\für Bonn\!DataBase\2005_08_12_Daniel\c3d\Daniel.ASF
:FULLY-SPECIFIED
:DEGREES
2577
root -20.16 17.2911 -34.8825 -3.70786 -7.08251 362.243
lowerback 12.0403 -2.49472 -1.01632
upperback 3.44715 -3.55504 -3.00792
thorax -3.26278 -1.7641 -2.03905
lowerneck -1.3406 1.29277 -3.61125
upperneck 12.4389 2.4235 -4.62816
head 4.35638 0.799046 -0.821095
rclavicle 1.49089e-014 -1.43125e-014
rhumerus -29.5903 8.14504 -72.3997
rradius 26.9608
rwrist 17.7686
rhand -20.1453 16.8426
rfingers 7.12502
rthumb 6.19956 -13.0467
lclavicle 1.49089e-014 -1.43125e-014
lhumerus -34.7407 12.1961 76.3815
lradius 26.8953
lwrist -30.7627
lhand -4.58092 -7.7298
lfingers 7.12502
lthumb 21.196 21.1314
rfemur -8.72423 3.90169 14.2562
rtibia 41.2609
rfoot -30.7801 -11.6905
rtoes -20.4443
lfemur -11.8503 6.55312 -22.7474
ltibia 61.7432
lfoot -25.2518 2.57811
ltoes -22.6452
2578
root -20.2555 17.2956 -34.9143 -3.4451 -5.59466 362.247
lowerback 11.7219 -2.60181 -1.05085
upperback 3.39431 -3.68882 -2.93557
thorax -3.14101 -1.83001 -1.93712
lowerneck -1.40879 1.3829 -3.15544
upperneck 12.5746 2.5458 -4.72365
head 4.4283 0.872354 -0.92893
rclavicle 3.51849e-014 -1.90833e-014
rhumerus -29.5857 7.87018 -71.8052
rradius 27.6469
rwrist 17.0466
rhand -19.7544 17.1563
rfingers 7.12502
rthumb 6.57692 -12.7216
lclavicle 3.51849e-014 -1.90833e-014
lhumerus -34.2901 14.3068 74.7299
lradius 24.6724
lwrist -34.7261
lhand -5.33475 -7.03121
lfingers 7.12502
lthumb 20.4718 21.9095
rfemur -8.68523 3.61386 14.6614
rtibia 41.3154
rfoot -31.4097 -12.2709
rtoes -19.2951
lfemur -11.8676 7.1449 -23.3683
ltibia 61.4106
lfoot -25.6804 1.84372
ltoes -23.9188
2579
root -20.3514 17.2988 -34.9415 -3.19362 -4.0544 362.263
lowerback 11.4352 -2.72176 -1.1748
upperback 3.30568 -3.8496 -2.80779
thorax -3.06413 -1.90895 -1.72276
lowerneck -1.42707 1.48152 -2.81808
upperneck 12.6403 2.68113 -4.8371
head 4.46493 0.948682 -1.02144
rclavicle -1.49089e-014 -3.18055e-015
rhumerus -29.6763 7.89836 -71.2841
rradius 28.3077
rwrist 16.104
rhand -19.5867 17.3136
rfingers 7.12502
rthumb 6.7388 -12.5591
lclavicle -1.49089e-014 -3.18055e-015
lhumerus -34.1664 17.1591 72.7678
lradius 22.6754
lwrist -38.7402
lhand -6.24275 -6.45238
lfingers 7.12502
lthumb 19.599 22.5797
rfemur -8.61892 3.33552 15.0672
rtibia 41.3817
rfoot -32.0153 -12.871
rtoes -18.511
lfemur -11.7986 7.5945 -23.9326
ltibia 60.9843
lfoot -26.1029 1.04481
ltoes -25.0166
2580
root -20.4463 17.3032 -34.9664 -2.89129 -2.444 362.267
lowerback 11.0659 -2.88245 -1.29411
upperback 3.22447 -4.06169 -2.69381
thorax -2.93498 -2.01388 -1.52444
lowerneck -1.59825 1.59335 -2.5097
upperneck 12.8345 2.83952 -4.86021
head 4.57815 1.0335 -1.07746
rclavicle 1.14301e-014 1.98785e-014
rhumerus -29.8156 8.09879 -70.9238
rradius 28.9696
rwrist 15.1349
rhand -19.6239 17.3753
rfingers 7.12502
rthumb 6.70291 -12.4986
lclavicle 1.14301e-014 1.98785e-014
lhumerus -34.2675 20.49 70.4724
lradius 20.8621
lwrist -42.6496
lhand -7.3823 -5.95935
lfingers 7.12502
lthumb 18.5031 23.1807
rfemur -8.60514 3.08253 15.479
rtibia 41.441
rfoot -32.6422 -13.4689
rtoes -17.8775
lfemur -11.7104 7.8134 -24.4247
ltibia 60.491
lfoot -26.4297 0.0911732
ltoes -25.4126
2581
root -20.5395 17.306 -34.988 -2.64111 -0.827644 362.257
lowerback 10.7081 -3.02579 -1.4084
upperback 3.18815 -4.24873 -2.5768
thorax -2.76301 -2.10693 -1.33265
lowerneck -1.83197 1.67704 -2.24617
upperneck 13.001 2.95203 -4.79161
head 4.69112 1.09846 -1.0955
rclavicle -6.4605e-015 -3.18055e-015
rhumerus -30.0128 8.36336 -70.649
rradius 29.6962
rwrist 13.9603
rhand -19.8175 17.2584
rfingers 7.12502
rthumb 6.51602 -12.6214
lclavicle -6.4605e-015 -3.18055e-015
lhumerus -34.5192 24.2616 67.876
lradius 19.1519
lwrist -46.4848
lhand -8.69003 -5.56975
lfingers 7.12502
lthumb 17.2448 23.6851
rfemur -8.56174 2.82613 15.8917
rtibia 41.4983
rfoot -33.0659 -14.0774
rtoes -17.6501
lfemur -11.4915 7.91727 -24.8368
ltibia 59.9199
lfoot -26.6036 -0.938857
ltoes -25.0691
2582
root -20.6313 17.3084 -35.0066 -2.33153 0.811362 362.235
lowerback 10.2923 -3.19663 -1.53075
upperback 3.1206 -4.47197 -2.45155
thorax -2.58904 -2.2184 -1.12823
lowerneck -2.07924 1.75847 -2.00957
upperneck 13.2167 3.06429 -4.72429
head 4.8256 1.16077 -1.10923
rclavicle -5.46658e-015 7.95139e-016
rhumerus -30.2717 8.57028 -70.4474
rradius 30.4207
rwrist 12.9171
rhand -19.9779 17.0441
rfingers 7.12502
rthumb 6.36117 -12.8403
lclavicle -5.46658e-015 7.95139e-016
lhumerus -35.1481 28.7372 64.7172
lradius 17.4751
lwrist -50.5492
lhand -10.1884 -5.30318
lfingers 7.12502
lthumb 15.8022 24.0719
rfemur -8.60355 2.61795 16.3014
rtibia 41.5478
rfoot -33.3764 -14.6519
rtoes -17.6411
lfemur -11.2897 7.91984 -25.1986
ltibia 59.3052
lfoot -26.5794 -1.80689
ltoes -24.4545
2583
root -20.7223 17.3107 -35.024 -2.04257 2.45475 362.241
lowerback 9.93524 -3.36248 -1.69852
upperback 3.01394 -4.69595 -2.33498
thorax -2.48279 -2.32987 -0.905673
lowerneck -2.27789 1.82826 -1.86888
upperneck 13.4287 3.15298 -4.57395
head 4.9454 1.21218 -1.07831
rclavicle 1.77912e-014 -2.46493e-014
rhumerus -30.6447 8.5963 -70.2807
rradius 31.0869
rwrist 12.114
rhand -20.0718 16.8714
rfingers 7.12502
rthumb 6.27047 -13.0158
lclavicle 1.77912e-014 -2.46493e-014
lhumerus -36.3963 33.5009 61.0441
lradius 16.1055
lwrist -54.6013
lhand -11.6749 -5.08626
lfingers 7.12502
lthumb 14.3702 24.3963
rfemur -8.62085 2.5373 16.6746
rtibia 41.5784
rfoot -33.6531 -15.1778
rtoes -17.7514
lfemur -11.0382 7.90563 -25.524
ltibia 58.6499
lfoot -26.3945 -2.40395
ltoes -23.3202
2584
root -20.8095 17.3143 -35.0435 -1.74557 4.11079 362.204
lowerback 9.6114 -3.54026 -1.83241
upperback 2.91534 -4.93164 -2.18393
thorax -2.38369 -2.44734 -0.665966
lowerneck -2.57444 1.87552 -1.83701
upperneck 14.0425 3.24582 -4.49422
head 4.68128 1.23645 -0.92664
rclavicle -4.27387e-014 9.14409e-015
rhumerus -30.9996 8.39359 -70.1199
rradius 31.7264
rwrist 11.3581
rhand -20.1822 16.588
rfingers 7.12502
rthumb 6.16388 -13.3024
lclavicle -4.27387e-014 9.14409e-015
lhumerus -38.4867 39.1022 56.4131
lradius 14.8748
lwrist -59.2657
lhand -13.2468 -5.08652
lfingers 7.12502
lthumb 12.8553 24.4976
rfemur -8.66528 2.42282 17.0466
rtibia 41.5875
rfoot -33.7546 -15.5895
rtoes -18.0295
lfemur -10.8414 7.82024 -25.7758
ltibia 57.9803
lfoot -26.114 -2.59308
ltoes -22.1287
2585
root -20.8938 17.3218 -35.0595 -1.50206 5.72719 362.167
lowerback 9.34078 -3.70485 -1.93419
upperback 2.82187 -5.14912 -2.06294
thorax -2.31165 -2.55565 -0.475973
lowerneck -2.82334 1.90011 -1.88796
upperneck 14.2555 3.2691 -4.21499
head 4.78375 1.25389 -0.827798
rclavicle -1.32192e-014 2.42517e-014
rhumerus -31.339 7.82711 -69.9496
rradius 32.288
rwrist 11.0368
rhand -20.0847 16.313
rfingers 7.12502
rthumb 6.25802 -13.5746
lclavicle -1.32192e-014 2.42517e-014
lhumerus -41.2413 44.1422 51.3644
lradius 13.9372
lwrist -63.2991
lhand -14.7343 -5.10782
lfingers 7.12502
lthumb 11.421 24.5611
rfemur -8.63126 2.55872 17.4039
rtibia 41.5594
rfoot -33.86 -15.8714
rtoes -17.9999
lfemur -10.5877 7.73318 -25.9606
ltibia 57.2838
lfoot -25.8211 -2.5722
ltoes -20.9433
2586
root -20.9756 17.3303 -35.0753 -1.18965 7.30158 362.151
lowerback 9.00216 -3.84425 -2.02264
upperback 2.72985 -5.33066 -1.97127
thorax -2.20307 -2.64669 -0.334165
lowerneck -3.06525 1.88706 -1.90835
upperneck 14.3808 3.23796 -3.96697
head 4.85831 1.24736 -0.746439
rclavicle 2.96686e-014 1.55052e-014
rhumerus -31.6612 6.99835 -69.8186
rradius 32.756
rwrist 10.8755
rhand -19.9122 16.0514
rfingers 7.12502
rthumb 6.42455 -13.8312
lclavicle 2.96686e-014 1.55052e-014
lhumerus -45.1276 49.2315 45.2733
lradius 13.2588
lwrist -67.3615
lhand -16.1348 -5.30255
lfingers 7.12502
lthumb 10.0701 24.4365
rfemur -8.66215 2.84135 17.6729
rtibia 41.5018
rfoot -34.0145 -15.7891
rtoes -17.6402
lfemur -10.4511 7.70632 -26.1278
ltibia 56.5875
lfoot -25.5407 -2.30079
ltoes -19.8684
